<?xml version="1.0" encoding="utf-8"?>
<!-- Generator: Adobe Illustrator 21.1.0, SVG Export Plug-In . SVG Version: 6.00 Build 0)  -->
<svg version="1.1" id="Capa_1" xmlns="http://www.w3.org/2000/svg" xmlns:xlink="http://www.w3.org/1999/xlink" x="0px" y="0px"
	 viewBox="0 0 512 512" style="enable-background:new 0 0 512 512;" xml:space="preserve">
<style type="text/css">
	.st0{fill:none;}
	.st1{stroke:#000000;stroke-width:7;stroke-miterlimit:10;}
</style>
<g>
	<path class="st0" d="M86.4,229.3h26.7c7.1,0,12.9-6.1,12.9-13.7v-9.7c0-7.6-5.8-13.7-12.9-13.7H86.4c-7.1,0-12.9,6.1-12.9,13.7v9.7
		C73.5,223.2,79.3,229.3,86.4,229.3z"/>
	<path class="st0" d="M384.1,347.9c-4.7-4.7-10.9-7.2-17.5-7.3c-0.1,0-0.3,0-0.4,0c-13.5,0-24.6,10.9-24.7,24.3
		c-0.1,6.5,2.5,12.7,7.2,17.3c4.7,4.7,10.9,7.2,17.5,7.3l0.2,0c13.5,0,24.7-10.9,24.9-24.3C391.4,358.7,388.8,352.6,384.1,347.9z"/>
	<path class="st0" d="M404.3,340.6c-3,0-6.2,0.6-9.8,1.9l-4.7,1.7l2.7,4.2c3.2,4.9,4.9,10.7,4.9,16.6c0,5.9-1.8,11.8-5,16.6
		l-2.8,4.1l4.6,1.9c3.4,1.4,6.7,2.1,9.9,2.1c0.1,0,0.3,0,0.4,0c13.5,0,24.5-11,24.5-24.5c0.1-6.5-2.5-12.7-7.2-17.3
		C417.2,343.3,410.9,340.7,404.3,340.6z"/>
	<path class="st0" d="M468,155.9H41c-8.1,0-14.7,6.5-14.7,14.4v250.4c0,7.9,6.6,14.4,14.7,14.4h427c8.1,0,14.7-6.5,14.7-14.4V170.3
		C482.7,162.4,476.1,155.9,468,155.9z M413.4,280.2c0-2.9,3.2-5.4,6.9-5.4s6.9,2.5,6.9,5.4v12.4c0,2.9-3.2,5.4-6.9,5.4
		s-6.9-2.5-6.9-5.4V280.2z M367.6,278.9c0-2.9,3.2-5.4,6.9-5.4s6.9,2.5,6.9,5.4v12.4c0,2.9-3.2,5.4-6.9,5.4s-6.9-2.5-6.9-5.4V278.9z
		 M239.4,280.1c0-2.9,3.2-5.4,6.9-5.4c3.7,0,6.9,2.5,6.9,5.4v12.4c0,2.9-3.2,5.4-6.9,5.4c-3.7,0-6.9-2.5-6.9-5.4V280.1z
		 M198.8,280.1c0-2.9,3.2-5.4,6.9-5.4s6.9,2.5,6.9,5.4v12.4c0,2.9-3.2,5.4-6.9,5.4s-6.9-2.5-6.9-5.4V280.1z M227.8,338.6
		c1.8,0,3.5,0.7,4.8,1.9c1.2,1.2,1.9,2.8,1.9,4.5c0,3.5-3,6.4-6.7,6.4h-53.4c-3.7,0-6.7-2.9-6.7-6.4s3-6.4,6.7-6.4H227.8z
		 M156.9,280.1c0-2.9,3.2-5.4,6.9-5.4c3.7,0,6.9,2.5,6.9,5.4v12.4c0,2.9-3.2,5.4-6.9,5.4c-3.7,0-6.9-2.5-6.9-5.4V280.1z M63.7,205.9
		c0-13.8,10.2-25.1,22.7-25.1h26.7c5.9,0,11.6,2.6,15.9,7.3c4.4,4.8,6.8,11.1,6.8,17.8v9.7c0,13.8-10.2,25.1-22.7,25.1H86.4
		c-12.5,0-22.7-11.3-22.7-25.1V205.9z M75.7,338.6h53.4c3.7,0,6.7,2.9,6.7,6.4s-3,6.4-6.7,6.4H75.7c-3.7,0-6.7-2.9-6.7-6.4
		S72,338.6,75.7,338.6z M71.3,292.5v-12.4c0-2.9,3.2-5.4,6.9-5.4s6.9,2.5,6.9,5.4v12.4c0,2.9-3.2,5.4-6.9,5.4S71.3,295.4,71.3,292.5
		z M113.5,292.5v-12.4c0-2.9,3.2-5.4,6.9-5.4c3.7,0,6.9,2.5,6.9,5.4v12.4c0,3-3.1,5.4-6.9,5.4C116.7,297.9,113.5,295.4,113.5,292.5z
		 M278.5,394.5H75.7c-3.7,0-6.7-2.9-6.7-6.4c0-3.5,3-6.4,6.7-6.4h202.8c3.7,0,6.7,2.9,6.7,6.4C285.2,391.6,282.2,394.5,278.5,394.5z
		 M293.9,292.5c0,2.9-3.2,5.4-6.9,5.4s-6.9-2.5-6.9-5.4v-12.4c0-2.9,3.2-5.4,6.9-5.4s6.9,2.5,6.9,5.4V292.5z M323.8,292.5v-12.4
		c0-2.9,3.2-5.4,6.9-5.4s6.9,2.5,6.9,5.4v12.4c0,2.9-3.2,5.4-6.9,5.4S323.8,295.4,323.8,292.5z M435.3,365.3L435.3,365.3
		c-0.1,16.8-14.1,30.4-31.3,30.4l-0.2,0c-5.8,0-11.6-1.7-16.8-5l-2.1-1.3l-2.1,1.3c-5,3-10.9,4.7-16.8,4.7c-8.3,0-16.1-3.3-22-9.1
		c-5.9-5.8-9.1-13.5-9-21.6c0.1-16.7,14.1-30.3,31.3-30.3h0l0.2,0c5.9,0,11.6,1.7,16.8,5l2.1,1.3l2.1-1.3c5.2-3.1,10.9-4.7,17-4.7
		c8.5,0,16.4,3.4,22.3,9.5C432.5,349.8,435.5,357.4,435.3,365.3L435.3,365.3z"/>
	<path d="M468,143H41c-15.4,0-28,12.2-28,27.3v250.4c0,15.1,12.6,27.3,28,27.3h427c15.4,0,28-12.2,28-27.3V170.3
		C496,155.2,483.4,143,468,143z M482.7,420.7c0,7.9-6.6,14.4-14.7,14.4H41c-8.1,0-14.7-6.5-14.7-14.4V170.3
		c0-7.9,6.6-14.4,14.7-14.4h427c8.1,0,14.7,6.5,14.7,14.4V420.7z"/>
	<path d="M167.7,345c0,3.5,3,6.4,6.7,6.4h53.4c3.7,0,6.7-2.9,6.7-6.4c0-1.7-0.7-3.3-1.9-4.5c-1.3-1.2-3-1.9-4.8-1.9h-53.4
		C170.7,338.6,167.7,341.5,167.7,345z"/>
	<path d="M69,345c0,3.5,3,6.4,6.7,6.4h53.4c3.7,0,6.7-2.9,6.7-6.4s-3-6.4-6.7-6.4H75.7C72,338.6,69,341.5,69,345z"/>
	<path d="M86.4,240.7h26.7c12.5,0,22.7-11.3,22.7-25.1v-9.7c0-6.7-2.4-13.1-6.8-17.8c-4.3-4.7-9.9-7.3-15.9-7.3H86.4
		c-12.5,0-22.7,11.3-22.7,25.1v9.7C63.7,229.4,73.9,240.7,86.4,240.7z M73.5,205.9c0-7.6,5.8-13.7,12.9-13.7h26.7
		c7.1,0,12.9,6.1,12.9,13.7v9.7c0,7.6-5.8,13.7-12.9,13.7H86.4c-7.1,0-12.9-6.1-12.9-13.7V205.9z"/>
	<path d="M278.5,381.7H75.7c-3.7,0-6.7,2.9-6.7,6.4c0,3.5,3,6.4,6.7,6.4h202.8c3.7,0,6.7-2.9,6.7-6.4
		C285.2,384.6,282.2,381.7,278.5,381.7z"/>
	<path class="st1" d="M404.5,334.6c-6.1,0-11.8,1.6-17,4.7l-2.1,1.3l-2.1-1.3c-5.2-3.3-10.8-5-16.8-5l-0.2,0h0
		c-17.2,0-31.2,13.6-31.3,30.3c0,8.1,3.2,15.8,9,21.6c5.9,5.9,13.7,9.1,22,9.1c5.8,0,11.8-1.7,16.8-4.7l2.1-1.3l2.1,1.3
		c5.2,3.3,11,5,16.8,5l0.2,0c17.2,0,31.2-13.6,31.3-30.3l0,0l0,0c0.2-7.9-2.9-15.5-8.5-21.3C420.9,338,413,334.6,404.5,334.6z
		 M366.4,389.5l-0.2,0c-6.6-0.1-12.8-2.7-17.5-7.3c-4.7-4.7-7.2-10.8-7.2-17.3c0.1-13.4,11.2-24.3,24.7-24.3c0.2,0,0.3,0,0.4,0
		c6.6,0.1,12.8,2.7,17.5,7.3c4.7,4.7,7.2,10.8,7.2,17.3C391.1,378.6,379.9,389.5,366.4,389.5z M404.5,389.7c-0.1,0-0.3,0-0.4,0
		c-3.2,0-6.4-0.7-9.9-2.1l-4.6-1.9l2.8-4.1c3.2-4.8,5-10.6,5-16.6c0-6-1.7-11.7-4.9-16.6l-2.7-4.2l4.7-1.7c3.5-1.3,6.7-1.9,9.8-1.9
		c6.6,0.1,12.9,2.7,17.5,7.3c4.7,4.7,7.2,10.8,7.2,17.3C429,378.7,418,389.7,404.5,389.7z"/>
	<path d="M85.1,292.5v-12.4c0-2.9-3.2-5.4-6.9-5.4s-6.9,2.5-6.9,5.4v12.4c0,2.9,3.2,5.4,6.9,5.4S85.1,295.4,85.1,292.5z"/>
	<path d="M163.8,297.9c3.7,0,6.9-2.5,6.9-5.4v-12.4c0-2.9-3.2-5.4-6.9-5.4c-3.7,0-6.9,2.5-6.9,5.4v12.4
		C156.9,295.4,160.1,297.9,163.8,297.9z"/>
	<path d="M127.3,292.5v-12.4c0-2.9-3.2-5.4-6.9-5.4c-3.7,0-6.9,2.5-6.9,5.4v12.4c0,2.9,3.2,5.4,6.9,5.4
		C124.2,297.9,127.3,295.5,127.3,292.5z"/>
	<path d="M205.7,297.9c3.7,0,6.9-2.5,6.9-5.4v-12.4c0-2.9-3.2-5.4-6.9-5.4s-6.9,2.5-6.9,5.4v12.4C198.8,295.4,202,297.9,205.7,297.9
		z"/>
	<path d="M337.6,292.5v-12.4c0-2.9-3.2-5.4-6.9-5.4s-6.9,2.5-6.9,5.4v12.4c0,2.9,3.2,5.4,6.9,5.4S337.6,295.4,337.6,292.5z"/>
	<path d="M287,274.7c-3.7,0-6.9,2.5-6.9,5.4v12.4c0,2.9,3.2,5.4,6.9,5.4s6.9-2.5,6.9-5.4v-12.4C293.9,277.2,290.7,274.7,287,274.7z"
		/>
	<path d="M246.3,297.9c3.7,0,6.9-2.5,6.9-5.4v-12.4c0-2.9-3.2-5.4-6.9-5.4c-3.7,0-6.9,2.5-6.9,5.4v12.4
		C239.4,295.4,242.6,297.9,246.3,297.9z"/>
	<path d="M374.5,296.7c3.7,0,6.9-2.5,6.9-5.4v-12.4c0-2.9-3.2-5.4-6.9-5.4s-6.9,2.5-6.9,5.4v12.4
		C367.6,294.2,370.8,296.7,374.5,296.7z"/>
	<path d="M420.3,298c3.7,0,6.9-2.5,6.9-5.4v-12.4c0-2.9-3.2-5.4-6.9-5.4s-6.9,2.5-6.9,5.4v12.4C413.4,295.5,416.6,298,420.3,298z"/>
</g>
</svg>
