<?xml version="1.0" encoding="utf-8"?>
<!-- Generator: Adobe Illustrator 21.1.0, SVG Export Plug-In . SVG Version: 6.00 Build 0)  -->
<svg version="1.1" id="Layer_1" xmlns="http://www.w3.org/2000/svg" xmlns:xlink="http://www.w3.org/1999/xlink" x="0px" y="0px"
	 viewBox="0 0 480 480" style="enable-background:new 0 0 480 480;" xml:space="preserve">
<style type="text/css">
	.st0{fill:none;}
	.st1{fill:none;stroke:#000000;stroke-width:0;stroke-linecap:round;stroke-linejoin:round;}
</style>
<g>
	<path class="st0" d="M155,75.6c0-14.4,11.6-25.6,26.6-25.6h129.6c14.9,0,26.6,11.2,26.6,25.6c-0.1,0-0.1,90.6-0.1,118.4h16.6V58
		c0-13.6-10.8-24-25-24h-166c-14.1,0-25,10.4-25,24v136H155V75.6z"/>
	<polygon class="st0" points="343.2,386 309.3,386 247.9,442 281.9,442 	"/>
	<polygon class="st0" points="401,386 367.4,386 306,442 340.5,442 	"/>
	<polygon class="st0" points="285.1,386 249.4,386 190.9,442 223.8,442 	"/>
	<polygon class="st0" points="167.2,442 225.9,386 191.5,386 132.7,442 	"/>
	<polygon class="st0" points="429,386 424.9,386 364.5,442 393.7,442 429,402.5 	"/>
	<path class="st0" d="M63.5,386v40c0,2.4,0.6,4.6,1.5,6.7l51.1-46.7H63.5z"/>
	<path class="st0" d="M167.8,386h-27.4l-61.3,55.9c0.4,0,0.7,0.1,1.1,0.1h28.9L167.8,386z"/>
	<path class="st0" d="M416.1,441.6c7-1.6,12.3-7.4,12.8-14.4L416.1,441.6z"/>
	<path class="st0" d="M311,66H181.6c-5.9,0-10,4-10,9.6V194H321V75.6C321,70,316.9,66,311,66z"/>
	<path class="st0" d="M429,370V226c0-8.8-7.5-16-16.6-16H80.2c-9.1,0-16.6,7.2-16.6,16v144H429z M179.8,282.2l7.8-8.2
		c2.2-2.4,5.6-2.4,7.8,0l0.5,0.6l30.4,34.5c1.1,1.1,2.7,1.1,3.8,0l74.1-81.4h0.5c2.2-2.4,5.6-2.4,7.8,0l7.8,8.2
		c2.2,2.4,2.2,5.9,0,8.2l-88.6,97.2c-1.1,1.1-2.2,1.8-3.8,1.8c-1.6,0-2.7-0.6-3.8-1.8L181,292.2c-0.1-0.1-1.2-1.8-1.2-1.8
		c-1.1-1.1-1.6-2.9-1.6-4.1S178.7,283.4,179.8,282.2z"/>
	<path d="M412.3,194h-41.5V58c0-22.4-18.3-40-41.5-40H163.2c-23.2,0-41.5,17.6-41.5,40v136H80.2C61.9,194,47,208.4,47,226v200
		c0,17.6,14.9,32,33.2,32h332.2c18.2,0,33.2-14.4,33.1-32V226C445.5,208.4,430.6,194,412.3,194z M393.7,442h-29.3l60.4-56h4.1v16.5
		L393.7,442z M223.9,386l-58.6,56h-34.6l58.8-56H223.9z M249.4,386h35.6l-61.3,56h-32.9L249.4,386z M309.3,386h33.9l-61.3,56h-34
		L309.3,386z M367.4,386H401l-60.4,56H306L367.4,386z M370.9,202L370.9,202L370.9,202z M138.3,58c0-13.6,10.9-24,25-24h166
		c14.2,0,25,10.4,25,24v136h-16.6c0-27.8,0-118.4,0.1-118.4c0-14.4-11.7-25.6-26.6-25.6H181.6c-15,0-26.6,11.2-26.6,25.6V194h-16.6
		V58z M321,194H171.6V75.6c0-5.6,4.1-9.6,10-9.6H311c5.9,0,10,4,10,9.6V194z M80.2,210h332.2c9.1,0,16.6,7.2,16.6,16v144H63.5V226
		C63.5,217.2,71,210,80.2,210z M65.1,432.7c-1-2-1.5-4.3-1.5-6.7v-40h52.6L65.1,432.7z M79.1,441.9l61.3-55.9h27.4l-58.7,56H80.2
		C79.8,442,79.4,442,79.1,441.9z M416.1,441.6l12.8-14.4C428.4,434.2,423.1,440,416.1,441.6z"/>
	<line class="st1" x1="370.8" y1="202" x2="370.9" y2="202"/>
	<path d="M313.6,241.4l-7-8.2c-2-2.4-5-2.4-7,0h-0.5l-66.6,81.4c-1,1.1-2.5,1.1-3.4,0l-27.3-34.5l-0.5-0.6c-2-2.4-5-2.4-7,0l-7,8.2
		c-1,1.2-1.5,2.9-1.5,4.1s0.5,3,1.5,4.1c0,0,1,1.7,1.1,1.8l38.7,49.1c1,1.2,2,1.8,3.4,1.8c1.5,0,2.5-0.7,3.4-1.8l79.6-97.2
		C315.6,247.3,315.6,243.8,313.6,241.4z"/>
</g>
</svg>
