<?xml version="1.0" encoding="utf-8"?>
<!-- Generator: Adobe Illustrator 21.1.0, SVG Export Plug-In . SVG Version: 6.00 Build 0)  -->
<svg version="1.1" id="Layer_1" xmlns="http://www.w3.org/2000/svg" xmlns:xlink="http://www.w3.org/1999/xlink" x="0px" y="0px"
	 viewBox="0 0 512 512" style="enable-background:new 0 0 512 512;" xml:space="preserve">
<style type="text/css">
	.st0{fill:none;}
</style>
<g>
	<path class="st0" d="M246.8,180.6c-37.1-32-57.7-70-61.2-112.9c0-0.5-1-1.4-1.8-1.4c-17.9,0.3-32.5,15.3-32.5,33.5v5
		c0,31.2,8,51,24.8,77.7h23.6c8.2,0,14.8,6.7,14.8,15c0,8.3-6.6,15-14.8,15H168H73.4H57.6c-9.3,0-16.8,7.6-16.8,17
		c0,9.4,7.5,17,16.8,17h15.8H89c8.2,0,14.8,6.7,14.8,15c0,8.4-6.6,15.1-14.8,15.1H73.2H58c-9.3,0-16.8,7.6-16.8,17s7.5,17,16.8,17
		h15.2h0.6H89c8.2,0,14.8,6.7,14.8,15s-6.6,15-14.8,15H73.8c-9.3,0-16.8,7.6-16.8,17s7.5,17,16.8,17h15.8c8.2,0,14.8,6.7,14.8,15
		s-6.6,15-14.8,15c-9.3,0-16.8,7.6-16.8,17c0,9.4,7.5,17,16.8,17h46.8c11.5,0,22.4,0.1,32.9,0.2c9.4,0.1,18.4,0.2,27.2,0.2
		c52.8,0,95.7-3,146.3-26.9V238.9c-1.5-0.8-3.1-1.5-4.7-2.3C312.4,224,277.1,206.8,246.8,180.6z"/>
	<path class="st0" d="M460,437c3.1-74.8,6.3-149.5,9.4-224.3h-96.8c0,69.8,0,139.6,0,209.4c0,9.4,7.5,17,16.8,17h16.8
		c4.1,0.1,8.4,0.2,12.9,0.2c5.1,0,10.5-0.1,15.9-0.3C443.8,438.6,452.2,437.9,460,437z"/>
	<path d="M484.2,190.7H357.8c-1.1,0.2-3,0.7-4.8,2.1c-3.4,2.5-4.3,6.2-4.5,7.2c-0.3,5.9-0.5,11.8-0.8,17.8
		c-3.2-1.8-7.7-4.3-13.3-7.3c-8.8-4.7-15.4-8-16.5-8.5c-61.8-30.9-89-72.5-89-72.5c-9.9-15.2-16.7-25.6-18.5-41.1
		c-1-8.4-2.9-13.8-3.6-22.6c-1-12-11.4-21.7-23.3-21.7h-0.4c-14.3,0.2-27.7,6-37.9,16.5c-10.1,10.5-15.7,24.3-15.7,39v5
		c0,10.1,0.9,22.6,4.1,36.6c4.8,20.9,12.8,37.2,19.4,48.2c-26.6,0.3-53.2,0.6-79.8,0.9H57.4c-21.2,0-38.4,17.5-38.4,39.1
		c0,4.8,1.3,10.1,1.3,10.1c3.3,12.3,11.5,19.7,15.3,22.7c-1.9,1.6-3.9,3.3-5.8,4.9c-6.5,7.2-10.1,16.6-10.1,26.4
		c0,1.8,0.1,10,4.9,19.1c6.8,12.7,18.1,18.2,22.1,19.9c-1.9,1.8-3.8,3.5-5.8,5.3c-3.5,6-5.4,12.9-5.4,19.9c0,2.1,0.1,10.2,4.9,19.1
		c7,13.1,19.1,18.3,23,19.8c-2.2,1.8-4.4,3.6-6.6,5.4c-3.5,6-5.4,12.9-5.4,19.9c0,21.6,17.2,39.1,38.4,39.1h46.8
		c11.6,0,22.8,0.1,32.7,0.2l0.6,0c9.3,0.1,18.1,0.2,26.9,0.2c47.4,0,94.4-2,148-25.6c2.8-1.3,5.6-2.5,8.3-3.8c0.1,3.5,1,11.5,7,18
		c4.8,5.3,10.8,7.2,16.1,8.8c6.3,2,11.4,2.4,13.3,2.4c14.7-0.1,29.8-0.1,44.3-0.1c13.8,0,28,0,41.9-0.1c0.6-0.5,1.4-1.1,2.2-1.8
		c0.3-0.3,1.4-1.4,2.4-2.9c1.7-2.5,2.4-5,2.8-6.6c1.3-41.8,2.7-84.4,4-125.5c1.3-41.5,2.6-84.4,4-126.5
		C490.9,193.8,487.9,190.7,484.2,190.7z M350.7,417.3c-1.5,0.7-3,1.3-4.5,2C292,444.9,246.3,447,196.5,447c-8.7,0-17.5-0.1-26.9-0.2
		l-0.4,0c-9.3-0.1-21-0.2-32.8-0.2H89.6c-13.7,0-24.8-11.2-24.8-25s11.1-25,24.8-25c3.7,0,6.8-3.1,6.8-7c0-3.9-3.1-7-6.8-7H73.8
		c-13.7,0-24.8-11.2-24.8-25s11.1-25,24.8-25H89c3.7,0,6.8-3.1,6.8-7c0-3.9-3.1-7-6.8-7H73.8h-0.6H58c-13.7,0-24.8-11.2-24.8-25
		s11.1-25,24.8-25h15.2H89c3.8,0,6.8-3.1,6.8-7.1c0-3.9-3.1-7-6.8-7H73.4H57.6c-13.7,0-24.8-11.2-24.8-25c0-13.8,11.1-25,24.8-25
		h15.8H168h31.7c3.7,0,6.8-3.1,6.8-7c0-3.9-3.1-7-6.8-7c-9.4,0.2-18.8,0.3-28.2,0.5c-0.7-1.4-1.4-2.8-2.2-4.2
		c-16.9-26.8-26-47.8-26-82v-5c0-22.5,18.1-41.1,40.4-41.5l0.1,0c5,0,9.5,4.1,9.8,8.8c3.3,40.7,23,76.8,58.4,107.4
		c29.2,25.3,63.7,42.2,88.9,54.5l0.7,0.3l0.1,0c0.6,0.3,1.2,0.6,1.8,0.9c1,0.5,2,1,3.1,1.5c1,0.3,2,0.6,2.9,0.9
		C349.9,294.3,350.3,355.8,350.7,417.3z M466,445.7c-3.9,0.2-55.2,2.6-79.3,0c-3.6-0.4-9.8-1.2-14.8-5.9c-6.4-6-7.1-14.8-7.2-19.1
		c0-72.2,0.1-144.4,0.1-216.7c37.2,0.3,74.4,0.7,111.6,1C472.9,285.2,469.4,365.4,466,445.7z"/>
</g>
<ellipse cx="403" cy="403.5" rx="11" ry="10.5"/>
<path d="M216.5,219"/>
<path d="M323,253.5"/>
<path d="M385,237"/>
<path d="M495.8,215.5"/>
<path d="M494.7,452"/>
</svg>
