<?xml version="1.0" encoding="utf-8"?>
<!-- Svg Vector Icons : http://www.onlinewebfonts.com/icon -->
<!DOCTYPE svg PUBLIC "-//W3C//DTD SVG 1.1//EN" "http://www.w3.org/Graphics/SVG/1.1/DTD/svg11.dtd">
<svg version="1.1" xmlns="http://www.w3.org/2000/svg" xmlns:xlink="http://www.w3.org/1999/xlink" x="0px" y="0px" viewBox="0 0 1000 1000" enable-background="new 0 0 1000 1000" xml:space="preserve">
<metadata> Svg Vector Icons : http://www.onlinewebfonts.com/icon </metadata>
<g><g transform="translate(0.000000,502.000000) scale(0.100000,-0.100000)"><path d="M4628.7,4910.2c-838.9-66.5-1640.7-342.2-2329.1-799.8C1116.4,3324.2,353.7,2123.4,136.7,705.6c-48.9-316.8-48.9-1056,0-1368.9c84.1-535.8,228.8-1003.2,463.5-1476.5c1212.5-2456.2,4192.8-3447.7,6619.7-2202c488.9,250.3,868.3,524.1,1243.7,899.6c389.2,389.2,664.9,778.3,923,1292.6C9899-1130.7,10030,17.3,9769.9,1155.4c-111.5,483-393.1,1132.3-674.7,1554.7c-795.9,1196.8-2031.9,1973.2-3457.5,2170.7C5379.6,4916,4886.8,4931.7,4628.7,4910.2z M5401.1,4538.6c852.6-80.2,1634.9-383.3,2336.9-907.4c238.6-177.9,694.2-633.6,874.2-874.2c363.7-486.9,633.6-1044.3,776.4-1605.5C9494.2,735,9525.5,478.8,9525.5,21.2c0-766.6-154.5-1406.1-498.7-2074.9C8356-3352.2,7084.9-4257.6,5645.6-4466.9c-1941.9-279.6-3844.7,723.6-4713,2483.6c-309,627.7-443.9,1161.6-463.5,1859.8c-17.6,584.7,46.9,1048.2,222.9,1572.3C1353,3437.6,3326.2,4732.2,5401.1,4538.6z"/><path d="M4794.9,3402.4c-821.4-64.5-1470.6-645.3-1644.6-1470.6c-70.4-334.4-29.3-557.3,129.1-715.8c113.4-113.4,228.8-158.4,408.7-158.4c307,1.9,504.5,199.5,547.6,547.6c25.4,199.5,88,340.3,209.3,469.3c134.9,142.8,262,199.5,485,211.2c299.2,15.6,508.5-56.7,661-230.8c125.2-138.9,160.4-236.6,162.3-430.2c0-142.8-7.8-181.9-54.7-275.8c-62.6-131-136.9-195.6-443.9-389.2c-402.8-254.2-573-418.5-704-680.5C4450.7,77.9,4429.2-88.3,4437-610.5c5.9-414.6,9.8-461.5,46.9-543.7c158.4-342.2,604.3-434.1,885.9-181.9c166.2,148.6,183.8,219,193.6,717.7l7.8,426.3l91.9,70.4c48.9,37.1,199.5,138.8,332.4,224.9c508.5,328.5,766.6,686.4,852.6,1179.2c107.6,623.8-76.3,1198.8-522.1,1625.1c-226.8,217.1-438,338.3-747,426.3c-140.8,41.1-224.9,54.8-510.4,78.2C5025.6,3416.1,4902.4,3412.2,4794.9,3402.4z M5428.5,2993.7c475.2-115.4,868.3-481.1,1030.6-958.2c29.3-88,37.2-166.2,37.2-410.7c0-279.6-3.9-314.9-54.7-455.6c-115.4-330.5-314.9-549.5-735.3-815.5c-307-193.6-424.4-293.3-473.3-400.9c-31.3-68.4-37.2-133-37.2-485c0-328.6-5.9-420.5-29.3-473.3c-58.7-119.3-209.3-144.7-305.1-48.9l-58.7,58.7l5.9,483l5.9,485l64.5,134.9C4965,291,5127.3,443.6,5448.1,647c340.3,213.1,488.9,350,582.8,541.7c68.4,138.8,72.4,158.4,80.2,377.4c7.8,195.6,2,252.3-31.3,365.7c-97.8,318.8-369.6,578.8-717.7,682.5c-177.9,54.8-561.3,50.9-743.1-5.9c-273.8-86.1-496.7-279.6-627.7-543.6c-64.5-131-123.2-352-125.2-463.5c0-31.3-23.5-80.2-56.7-117.3c-72.4-82.1-187.7-90-264-17.6c-68.4,64.6-78.2,131-41.1,336.4c113.4,657.1,600.4,1140.1,1245.7,1230.1C4925.9,3058.2,5236.9,3038.6,5428.5,2993.7z"/><path d="M4751.9-1912.9c-440-162.3-629.7-653.2-412.6-1061.9c158.4-297.3,500.6-445.9,848.7-369.6c238.6,54.8,459.6,271.8,526.1,520.2c95.8,353.9-78.2,733.3-406.8,882C5145-1869.9,4904.4-1856.2,4751.9-1912.9z M5188-2296.2c234.7-136.9,248.3-473.3,25.4-633.6c-144.7-105.6-324.6-95.8-461.5,23.5c-166.2,146.7-185.8,369.6-45,530C4830.1-2237.5,5031.5-2204.3,5188-2296.2z"/></g></g>
</svg>