<?xml version="1.0" encoding="utf-8"?>
<!-- Generator: Adobe Illustrator 21.1.0, SVG Export Plug-In . SVG Version: 6.00 Build 0)  -->
<svg version="1.1" id="Layer_1" xmlns="http://www.w3.org/2000/svg" xmlns:xlink="http://www.w3.org/1999/xlink" x="0px" y="0px"
	 viewBox="0 0 480 480" style="enable-background:new 0 0 480 480;" xml:space="preserve">
<g>
	<path d="M381.1,471c-19.3,0-42.5-4.7-68.1-14.1c-56.1-20.6-117.1-61.2-171.8-114.4C86.4,289.4,44.6,230,23.5,175.5
		C4.2,125.9,4.2,85.3,23.3,66.6c2.8-2.7,5.6-5.6,8.5-8.5c17.5-17.9,37.3-38,63.4-37.1c18,0.7,35.5,11.6,53.4,33.3
		c52.9,64,29.1,86.8,1.4,113.2l-4.9,4.7c-4.5,4.4-13.1,24.7,66.3,101.9c25.9,25.2,48,43.6,65.7,54.8c11.1,7,31,17.6,39.2,9.7
		l4.9-4.8c27.2-26.8,50.6-49.9,116.4,1.5c22.3,17.4,33.5,34.4,34.2,52c1.1,25.4-19.8,44.7-38.2,61.7c-3,2.8-6,5.5-8.8,8.2
		C415.5,466.4,400.3,471,381.1,471z M93.4,36.1c-18.6,0-35.4,17.2-50.3,32.4c-3,3.1-5.9,6-8.7,8.8c-14.3,13.9-12.8,50.3,3.7,92.8
		c20.4,52.6,60.9,110,114.2,161.7c53.2,51.7,112.3,91.1,166.3,110.9c43.8,16.1,81.3,17.4,95.5,3.6c2.8-2.8,5.9-5.6,9-8.5
		c16-14.8,34.1-31.5,33.3-50.1c-0.5-12.8-10.1-26.5-28.4-40.8c-54.8-42.8-70.1-27.7-95.5-2.7l-5,4.9c-12.1,11.8-31.9,9.2-58.7-7.7
		c-18.6-11.7-41.5-30.8-68.2-56.8c-65.9-64-87-103.2-66.3-123.3l5-4.8c25.8-24.7,41.4-39.6-2.7-92.9c-14.7-17.8-28.9-27.1-42-27.6
		C94.2,36.1,93.8,36.1,93.4,36.1z"/>
</g>
</svg>
