<?xml version="1.0" encoding="utf-8"?>
<!-- Generator: Adobe Illustrator 21.1.0, SVG Export Plug-In . SVG Version: 6.00 Build 0)  -->
<svg version="1.1" id="Layer_1" xmlns="http://www.w3.org/2000/svg" xmlns:xlink="http://www.w3.org/1999/xlink" x="0px" y="0px"
	 viewBox="0 0 480 480" style="enable-background:new 0 0 480 480;" xml:space="preserve">
<g>
	<path d="M384.8,285c-13.9,0-28.6,0-42.6,0c-1.5,0-3.7,0.7-5.1,2.2c-0.7,0.7-2.9,2.9-2.9,6.5c0.7,2.2,2.9,4.3,5.1,5
		c11.7,0,23.5,0.7,35.9,0.7l66,136.9h-402l66-136.9h38.9c0.7,0,4.4,0,7.3-2.9c2.2-2.2,2.9-6.5,1.5-9.4c-1.5-2.2-4.4-2.2-5.9-2.9
		c-12.5-0.7-49.2,0-51.4,0L15,450h449L384.8,285z"/>
</g>
<g>
	<path d="M243.2,100.5c-25.7,0-47,20.9-47,46.1s21.3,46.1,47,46.1s47-20.9,47-46.1S268.8,100.5,243.2,100.5z M243.2,179.1
		c-18.3,0-33.7-14.4-33.7-33.1s15.4-33.1,33.7-33.1s33.7,14.4,33.7,33.1S261.5,179.1,243.2,179.1z"/>
	<path d="M332.7,58.7C308.5,35,276.2,22,241.7,22c-34.5,0-66.8,13-91,36.7C106,102.7,100.1,185.6,139,236l102.7,146.3l102.7-145.5
		C383.3,185.6,378.2,102.7,332.7,58.7z M334.1,228.1l-91.7,130.4L150,228.1c-35.2-45.4-30.1-120.3,11-160
		C183,46.5,211.6,35,242.4,35s59.4,11.5,81.4,33.1C364.2,107.7,369.4,182.7,334.1,228.1z"/>
</g>
<path d="M154.4,316"/>
<path d="M167.6,298.7"/>
<path d="M341.5,308.8"/>
<path d="M345.9,321"/>
<path d="M163.9,294.4"/>
<path d="M158.1,311.7"/>
<path d="M161,300.1"/>
<path d="M334.9,305.2"/>
<path d="M155.1,297.2"/>
<path d="M158.8,300.8"/>
</svg>
