<?xml version="1.0" encoding="utf-8"?>
<!-- Generator: Adobe Illustrator 21.1.0, SVG Export Plug-In . SVG Version: 6.00 Build 0)  -->
<svg version="1.1" id="Capa_1" xmlns="http://www.w3.org/2000/svg" xmlns:xlink="http://www.w3.org/1999/xlink" x="0px" y="0px"
	 viewBox="0 0 400 400" style="enable-background:new 0 0 400 400;" xml:space="preserve">
<style type="text/css">
	.st0{fill:none;}
</style>
<g>
	<path class="st0" d="M203,26.2c-95.9,0-173.8,78-173.8,173.8s78,173.8,173.8,173.8s173.8-78,173.8-173.8S298.9,26.2,203,26.2z
		 M284.1,139.1c-33.3,42-66.7,84-100,126c-1.1,0.9-2.2,1.8-3.3,2.7c-1.7,0.6-4.2,1.6-7.5,1.6c-0.3,0-0.6,0-0.9,0
		c-1.4-0.1-3.6-0.2-6.1-1.5c-1.1-0.6-2.2-1.4-3.2-2.4l-51-51c-5.1-5.1-5.1-13.4,0-18.5c2.5-2.5,5.9-3.8,9.3-3.8
		c3.3,0,6.7,1.3,9.3,3.8l41.7,41.7c30.2-39.3,60.5-78.5,90.7-117.7c3.1-3.7,7.5-5.6,11.8-5.6c3,0,5.9,0.9,8.3,2.7
		C289.5,121.9,290.6,132.4,284.1,139.1z"/>
	<path d="M203,6C96,6,9,93,9,200s87,194,194,194s194-87,194-194S310,6,203,6z M203,379.8c-99.1,0-179.8-80.7-179.8-179.8
		S103.9,20.2,203,20.2S382.8,100.9,382.8,200S302.1,379.8,203,379.8z"/>
	<path d="M290.4,127.6c-0.2-2.4-1.3-4.5-2.9-5.7c-1.3-1-2.9-1.5-4.7-1.5c-2.8,0-5.3,1.2-7.1,3.3c-10.9,14.1-21.8,28.2-32.7,42.4
		c-19,24.6-38.7,50.1-58,75.3l-4.2,5.4l-4.8-4.8l-41.7-41.7c-1.3-1.3-3.1-2.1-5-2.1c-1.9,0-3.7,0.7-5,2.1c-2.8,2.8-2.8,7.3,0,10
		l51,51c0.5,0.5,1.1,1,1.8,1.3c1.3,0.6,2.4,0.7,3.5,0.8l0.1,0c0.2,0,0.3,0,0.5,0c1.8,0,3.3-0.4,4.5-0.9l2-1.7
		c16.5-20.8,33.1-41.7,49.6-62.5c16.7-21,33.3-42,50-63l0.2-0.2l0.2-0.2C290.4,132.3,290.6,129.2,290.4,127.6z"/>
</g>
</svg>
