<?xml version="1.0" encoding="utf-8"?>
<!-- Generator: Adobe Illustrator 21.1.0, SVG Export Plug-In . SVG Version: 6.00 Build 0)  -->
<svg version="1.1" id="Layer_1" xmlns="http://www.w3.org/2000/svg" xmlns:xlink="http://www.w3.org/1999/xlink" x="0px" y="0px"
	 viewBox="0 0 490 217" style="enable-background:new 0 0 490 217;" xml:space="preserve">
<style type="text/css">
	.st0{fill:none;}
	.st1{stroke:#BC17C1;stroke-width:5;stroke-miterlimit:10;}
</style>
<g>
	<g>
		<g>
			<path class="st0" d="M325.4,150.6C316,158.2,305.1,162,295,162c-9.8,0-18.9-3.6-24.8-10.9L251,127.4l-88.2,71.7l249.5-2.5
				l-57.1-70.3L325.4,150.6z"/>
			<polygon class="st0" points="236.5,109.6 179.3,39.4 148.3,181.4 			"/>
			<path class="st0" d="M197.6,20c29.7,37.4,59.3,74.8,89,112.3c3.3,2.5,7.8,5.2,13.3,5.4c0,0,0.2,0,0.5,0c1.3,0,4.8-0.1,8.5-1.7
				c8.5-3.4,65.6-50.8,142.3-117.4C366.6,19.1,282.1,19.5,197.6,20z"/>
			<path class="st0" d="M465.6,36.4c-30.4,25.6-60.8,51.1-91.3,76.7c19.4,24.1,38.8,48.3,58.2,72.4
				C443.5,135.8,454.5,86.1,465.6,36.4z"/>
			<path d="M463.2,1c-0.6,0-0.9,0-1.1,0h-0.2h-0.2L330.3,1.5L199.2,2c-4.1,0.2-14.3,1.6-23.4,9.8c-4.6,4.1-10.5,11.4-12.5,23v0.1V35
				l-4.7,22.6c-9.2,44.1-18.7,89.7-28.2,134.4c-0.6,3.2-1,9.3,2.9,14.7c3.5,4.9,9.4,7.8,15.8,7.8c0.9,0,1.7-0.1,2.6-0.2h0.4h0.4
				c44,0.1,88.8,0.1,132,0.2c20.4,0,57.2,2,131.2,0.2c4.3-0.1,14.5-0.5,22.8-7.4c9.1-7.5,11.5-19,12.2-25V182l0.1-0.3
				c5.4-25.6,10.8-51.2,16.1-76.9c5.4-25.6,10.8-51.3,16.2-76.9l0.1-0.4l0.1-0.2c0.2-0.8,3.1-12-4.5-20.1C473.3,1.6,466.1,1,463.2,1
				z M197.5,14l168.9-0.9l84.7-0.4l16.2-0.1L455,23.2c-25.4,19.5-45.7,35.7-59.7,47.2c-34.5,28.2-51.8,42.3-52.7,43.3
				c0,0-3.1,3.8-32,26c0,0-5.2,4-10.4,4l0,0c0,0-0.4,0-0.8,0c-7.3-0.3-15.8-7.1-15.8-7.1c-10.3-8.3-19.6-21.3-21.2-23.5
				c-8.3-11.1-16.7-22.2-25.3-33.4c-14.8-19.2-29.6-37.8-44.3-55.9l-7.7-9.7L197.5,14z M142.5,180.1l31-142l2.7-12.2l7.9,9.7
				l57.1,70.3l3.8,4.7l-4.7,3.8L152.1,186l-13.3,10.8L142.5,180.1z M412.4,202.7c-88.5,0.3-177,0.7-265.5,1
				c4.1-3.1,8.1-6.1,12.2-9.2l88.2-71.7l4.7-3.8c9.6,12.3,18.7,20.9,25.4,26.5c10,8.4,14.1,9.9,17.7,10.5c12.6,2,23.3-7,26.7-10.1
				l29.7-24.2l4.7-3.8l3.8,4.7l57.1,70.3l7.9,9.7L412.4,202.7z M471.4,37.7c-5.5,24.8-11,49.6-16.5,74.4
				c-5.5,24.9-11,49.8-16.6,74.7l-2.7,12.2l-7.8-9.7c-9.7-12.1-19.4-24.1-29.1-36.2s-19.4-24.1-29.1-36.2l-3.7-4.6l4.5-3.8
				c10.7-9,21.4-18,32.1-26.9c19.4-16.3,39.5-33.2,59.2-49.8l13.6-11.4L471.4,37.7z"/>
		</g>
	</g>
</g>
<g>
	<g>
		<g>
			<path d="M107.9,174.4c0-1.5-0.6-3-1.7-4.1s-2.5-1.7-4-1.7h-0.1l0,0l0,0l-93.8-0.1c-3.3,0-6,2.7-6,5.9l0,0l0,0
				c0,1.5,0.6,3,1.7,4.1s2.5,1.7,4,1.7h0.1l0,0l0,0l93.7,0.1C105.1,180.3,107.8,177.6,107.9,174.4z"/>
		</g>
	</g>
</g>
<g>
	<path d="M103.2,47l-48.3-0.3c-2.8,0-5,2.2-5,4.9c0,2.8,2.3,5.1,5.1,5.1c15.6,0.1,31.1,0.2,46.7,0.3c0.6,0,1.3,0,1.9,0
		c0.3,0,0.7,0,1.2-0.1c0.8-0.2,1.6-0.6,2.2-1.3c0.9-0.9,1.4-2.2,1.4-3.5C108.3,49.3,106,47,103.2,47z"/>
</g>
<g>
	<path d="M103.5,105l-86.1-0.3c-1.5,0-2.8,0.6-3.8,1.6s-1.5,2.4-1.5,3.9c0.1,3.1,2.7,5.6,5.8,5.6L104,116c1.5,0,2.8-0.6,3.8-1.6
		s1.5-2.4,1.5-3.9C109.2,107.5,106.6,105,103.5,105z"/>
</g>
<path class="st1" d="M321,137"/>
<path d="M284.7,152.7"/>
<path d="M294.7,152.7"/>
<path class="st0" d="M275.8,144"/>
</svg>
