<?xml version="1.0" encoding="utf-8"?>
<!-- Generator: Adobe Illustrator 21.1.0, SVG Export Plug-In . SVG Version: 6.00 Build 0)  -->
<svg version="1.1" id="Layer_1" xmlns="http://www.w3.org/2000/svg" xmlns:xlink="http://www.w3.org/1999/xlink" x="0px" y="0px"
	 viewBox="0 0 512 512" style="enable-background:new 0 0 512 512;" xml:space="preserve">
<g>
	<path d="M348.5,320.8l-45-21.2c-4.1-2-7.2-6-7.2-10.1v-15.1c1-1,2-3,3.1-4c6.1-8.1,10.2-16.1,14.3-25.2c6.1-3,11.3-9.1,11.3-16.1
		V212c0-4-2-8.1-5.1-11.1v-23.2c-1-4-2-11.1-6.1-18.1c-2-4-5.1-6-6.1-7.1c-3.1-3-6.1-5-8.2-6c-4.1-3-8.2-5-10.2-6
		c-4.1-2-8.2-2-9.2-3c-6.1-2-9.2-1-16.4-4c-2-1-9.2-4-19.5-8.1c-2-1-4.1-1-5.1-1c-3.1,2-1,7.1-3.1,13.1c-3.1,7.1-12.3,5-18.4,11.1
		c-9.2,10.1-10.2,24.2-10.2,28.2v23.2c-1,1-3.1,3-4.1,5c0,1-1,3-1,5c0,6,0,11.1,0,17.1c0,1,0,4,2,7.1c1,2,3.1,4,5.1,6
		c4.1,16.1,13.3,27.2,16.4,31.2v18.1c0,4-2,8.1-6.1,10.1l-41,20.1c-3.1,2-10.2,6-16.4,14.1c-4.1,6-5.1,11.1-5.1,14.1
		c2,0.3,4.1,0.7,6.1,1c2-3,4.1-8.1,8.2-12.1c4.1-5,8.2-8.1,11.3-10.1l42-21.2c7.2-4,11.3-10.1,11.3-18.1c0-6-1-11.1-1-17.1
		c-2-2-4.1-5-6.1-9.1c-3.1-5-5.1-8.1-5.1-10.1c-1-2-1-3-2-5c-1-3-2-6-3.1-9.1l-2-1c-3.1-2-4.1-4-4.1-7.1V212c0,0,0-1,0-2
		c0,0,0-1,1-1c0.7-1,1.4-2,2-3l2-1v-26.2v-1c-1-8.1,2-16.1,7.2-22.2c6.1-7.1,10.2-4,13.3-10.1c3.1-5,1-9.1,4.1-11.1
		c3.1-2,8.2,4,18.4,7.1c10.2,4,15.4,2,22.5,4c3.1,1,5.1,2,7.2,3c5.1,3,9.2,6,11.3,9.1c2,2,4.1,4,5.1,7.1c3.1,5,3.1,10.1,3.1,13.1
		V205l2,1c2,2,3.1,4,3.1,6v17.1c0,4-3.1,7.1-7.2,8.1c-1,1-1,3-2,4c-3.1,9.1-7.2,17.1-13.3,25.2c-1,1-2,2-3.1,4c0,0-1,1-1,2
		c0,6,0,11.1-1,17.1c0,8.1,4.1,14.1,12.3,18.1l45,21.2c14.3,9.1,17.4,15.1,16.4,18.1c-1,2-3.1,4-3.1,4s3.1-3,7.2-7.1
		c2-1,3.1-2,4.1-3c-1-2-2-4-4.1-6C359.8,327.9,353.6,323.9,348.5,320.8z"/>
	<path d="M371.6,339.6c-1-2-2.2-4.3-4.5-6.6c-5.2-7.1-11.3-11.3-17.1-14.7L304.8,297c-3.2-1.6-5.5-4.7-5.5-7.4v-13.8
		c0-0.1,0.1-0.2,0.1-0.3c0.3-0.4,0.6-0.9,0.9-1.3c0.4-0.6,0.9-1.3,1.2-1.6l0.3-0.3c6-7.9,10.1-15.6,14.3-24.8c7.3-4,12-11.1,12-18.3
		V212c0-4.3-1.9-8.7-5.1-12.3v-22.3l-0.1-0.4c-0.2-0.7-0.4-1.5-0.6-2.4c-0.9-4.1-2.3-10.3-5.9-16.5c-1.9-3.7-4.6-6-6-7.2
		c-0.3-0.2-0.5-0.4-0.7-0.6c-3.8-3.7-7.2-5.7-8.7-6.5c-4.2-3.1-8.4-5.2-10.5-6.2c-2.5-1.3-5-1.8-6.8-2.2c-0.6-0.1-1.4-0.3-1.8-0.5
		l-0.3-0.3l-0.7-0.2c-2.9-0.9-5.1-1.3-7.3-1.6c-2.6-0.4-5.1-0.8-8.8-2.3c-2.1-1-9.1-4-19.5-8.1c-2.6-1.3-5.2-1.3-6.3-1.3H238
		l-0.7,0.5c-3,2-3.2,5.3-3.3,8.3c-0.1,2-0.2,4-0.9,6.2c-1.1,2.4-3.4,3.3-7.2,4.5c-3.4,1.1-7.2,2.3-10.5,5.5l-0.1,0.1
		c-10.5,11.5-11,27.2-11,30.2v21.9c-1.2,1.2-2.8,3-3.8,4.9l-0.3,0.6v0.6c0,0.2-0.2,0.6-0.3,0.9c-0.3,1.1-0.8,2.6-0.8,4.2v17.1
		c0,1.2,0,4.9,2.5,8.6c1.1,2.2,3.1,4.2,5,6.1c4,15.2,12.4,25.9,16,30.6l0.1,0.1v17.1c0,3.2-1.7,6-4.5,7.4l-41,20.1l-0.3,0.2
		c-0.3,0.2-0.7,0.5-1.1,0.7c-3.6,2.3-10.2,6.5-16,14.1l-0.1,0.1c-4.9,7.2-5.6,13-5.6,15.8v2.5l10.6,1.7l1.1-1.6c0.7-1,1.3-2.2,2-3.4
		c1.5-2.7,3.2-5.7,5.8-8.2l0.2-0.2c3.8-4.7,7.6-7.5,10.4-9.4l41.8-21.1l0.1-0.1c8.4-4.7,12.8-11.9,12.8-20.7c0-3.2-0.3-6-0.5-8.8
		c-0.3-2.8-0.5-5.4-0.5-8.3v-1.3l-0.9-0.9c-1.8-1.8-3.7-4.6-5.6-8.3l-1.3-2.1c-0.8-1.3-1.6-2.6-2.3-3.8c-0.4-0.8-0.8-1.6-1.2-2.4
		c0-0.2-0.1-0.3-0.1-0.4v-0.7l-0.3-0.6c-0.4-0.8-0.6-1.4-0.9-2.1c-0.3-0.8-0.5-1.6-1.1-2.7l-3.4-10.1l-3-1.5
		c-2.2-1.5-2.6-2.6-2.6-4.4l0-12.5c0.4-2.2,0.7-4.2,0.8-6.3l1.3-2l3-1.5v-29.1l0-0.4c-0.9-6.7,1.5-14,6.5-19.8
		c2.6-2.9,4.6-3.8,6.6-4.6c2.4-1,5-2,7.1-6c1.8-2.9,2.1-5.6,2.4-7.5c0.2-1.6,0.3-2.2,0.6-2.4c0.8,0.1,2.8,1.2,4.3,2.1
		c2.8,1.6,6.7,3.7,11.7,5.2c6.5,2.5,11.1,2.8,15.1,3.1c2.6,0.2,4.9,0.3,7.5,1c2.8,0.9,4.7,1.8,6.6,2.8c5.3,3.1,8.6,5.8,10.2,8.1
		l0.2,0.2l0.2,0.2c1.9,1.9,3.6,3.5,4.4,5.9l0.1,0.3l0.2,0.3c2.6,4.3,2.6,8.7,2.6,11.5v29.1l3.3,1.6c1.2,1.3,1.9,2.5,1.9,3.6v17.1
		c0,2.9-2.6,4.6-4.9,5.1l-0.8,0.2l-0.6,0.6c-1,1-1.4,2.3-1.8,3.2c-0.1,0.3-0.2,0.7-0.3,0.9l-0.5,0.4l-0.2,0.7
		c-3.1,9.1-7.1,16.8-12.7,24.2c-1,1-2.2,2.2-3.3,4.3c-0.6,0.7-1.5,2.1-1.5,3.8c0,6,0,10.8-1,16.6l0,0.5c0,9.3,4.7,16.3,14,20.8
		l44.9,21.1c14.4,9.1,15,13.7,15,14.4c-0.7,1.2-1.9,2.5-2.3,3v0c0,0,0,0,0,0l4.2,4.3l0,0c0,0,0,0,0,0l6.8-6.7
		c2.2-1.1,3.4-2.3,4.4-3.3l1.6-1.5L371.6,339.6z"/>
</g>
<path d="M439.5,69.9c-119.7,0-173-62-173.9-62.9c-3.4-3.4-9.5-3.4-12.9,0c-0.9,0.9-53.4,62.9-173.9,62.9c-4.3,0-8.6,3.4-8.6,7.8
	v155.9c3.4,33.6,17.2,138.7,102.4,217c33.6,29.3,65.4,47.4,91.2,57.7c24.1-12.1,53.4-30.1,80.9-57.7c81.8-78.4,98.1-178.3,102.4-217
	V77.7C448.1,73.4,444.6,69.9,439.5,69.9z M431.7,234.4c-4.3,37.9-20.7,130.9-96.4,204.1c-24.1,23.3-48.2,39.6-69.7,50.8
	c-23.2-9.5-52.5-25.8-80.9-50.8c-80.9-73.2-93.8-173.1-96.4-204.1V86.3c99.9-2.6,154.1-44.8,172.2-62c17.2,16.4,71.4,59.4,171.3,62
	V234.4z M255.2,69.9c-25,16.4-67.1,38.8-127.4,46.5c-4.3,0.9-6.9,4.3-6.9,7.8v110.2c0,70.6,31,136.9,83.5,178.3
	c20.7,16.4,52.5,30.1,52.5,30.1c0.9,0.9,1.7,0.9,2.6,0.9c0,0,0.9,0,0.9,0.9c0.9,0,1.7-0.9,2.6-0.9c25.8-8.6,43-22.4,52.5-31
	c36.2-30.1,57.7-71.5,57.7-71.5c22.4-43.9,25.8-84.4,25.8-106.8c0-37,0-73.2,0-110.2c0-4.3-3.4-7.8-6.9-7.8
	c-60.3-7.8-102.4-29.3-127.4-46.5C262.1,68.2,257.8,68.2,255.2,69.9z M382.6,131.1v103.4c0,65.5-29.3,127.5-77.5,165.4
	c-14.6,11.2-29.3,20.7-44.8,26.7c-15.5-6-31-15.5-44.8-26.7c-48.2-37.9-77.5-99.9-77.5-165.4V131.1c56.8-8.6,97.3-28.4,123.1-44.8
	C285.4,102.7,325.8,122.5,382.6,131.1z"/>
</svg>
