<?xml version="1.0" encoding="utf-8"?>
<!-- Generator: Adobe Illustrator 21.1.0, SVG Export Plug-In . SVG Version: 6.00 Build 0)  -->
<svg version="1.1" id="Layer_1" xmlns="http://www.w3.org/2000/svg" xmlns:xlink="http://www.w3.org/1999/xlink" x="0px" y="0px"
	 viewBox="0 0 480 480" style="enable-background:new 0 0 480 480;" xml:space="preserve">
<style type="text/css">
	.st0{fill:none;}
	.st1{fill:none;stroke:#DA0EE0;stroke-width:0;stroke-linecap:round;stroke-linejoin:round;}
</style>
<g>
	<path class="st0" d="M147.7,171.1h58.2v-39.8h0.1v-0.2h-67.8l6.6,40.6C145.8,171.5,146.7,171.1,147.7,171.1z"/>
	<path class="st0" d="M141.5,389c-13.3,0-24.2,11-24.2,24.3c0,13.3,11,24.3,24.2,24.3s24.1-10.8,24.2-24.3
		C165.7,400,154.7,389,141.5,389z"/>
	<path class="st0" d="M156.9,235.4c16.8-1.4,33.5-2.9,50.3-4.5c-0.4-13.1-0.8-26.5-1.2-39.6h-57.9C151,206,153.7,220.7,156.9,235.4z
		"/>
	<path class="st0" d="M352,330.7C351.9,330.7,351.9,330.8,352,330.7L352,330.7C351.9,330.8,351.9,330.8,352,330.7z"/>
	<rect x="225.4" y="131.3" class="st0" width="58.1" height="39.8"/>
	<path class="st0" d="M349.8,331.4c-3.7,1-9.8,2.7-9.9,2.8c2.2-0.1,7-1.7,10.1-2.7L349.8,331.4z"/>
	<path class="st0" d="M356.6,413.3c0-13.3-11-24.3-24.2-24.3c-13.3,0-24.2,11-24.2,24.3c0,13.3,11,24.3,24.2,24.3
		S356.5,426.8,356.6,413.3z"/>
	<path class="st0" d="M352.1,330.7c-0.1,0-0.1,0-0.2,0.1C352,330.7,352.1,330.7,352.1,330.7L352.1,330.7z"/>
	<path class="st0" d="M362.8,219.1c2.1-9.2,4.3-18.6,6.4-28H303c-0.4,11.2-0.8,22.1-1.2,33.3C322,222.8,342.3,221.1,362.8,219.1z"/>
	<polygon class="st0" points="302.9,131.3 302.9,171.1 371.9,171.1 377.4,131.3 	"/>
	<path class="st0" d="M224.8,229.1c19.1-1.1,38.2-2.3,57.3-3.5c0.4-11.4,1-22.9,1.4-34.3h-58.1C225.2,203.8,225,216.6,224.8,229.1z"
		/>
	<path d="M377.8,410.3c0-25.2-20.4-45.7-45.4-45.7S287,385.1,287,410.3c0,25.2,20.4,45.7,45.4,45.7S377.8,435.5,377.8,410.3z
		 M332.4,442.6c-17.8,0-32.2-14.5-32.2-32.3c0-17.8,14.4-32.3,32.2-32.3c17.8,0,32.2,14.5,32.2,32.3v0l0,0
		C364.5,428.1,350,442.6,332.4,442.6z"/>
	<path d="M141.5,364.6c-25,0-45.4,20.5-45.4,45.7c0,25.2,20.4,45.7,45.4,45.7s45.4-20.5,45.4-45.7
		C186.9,385.1,166.5,364.6,141.5,364.6z M173.7,410.4c-0.1,17.8-14.6,32.2-32.2,32.2c-17.8,0-32.2-14.5-32.2-32.3
		c0-17.8,14.4-32.3,32.2-32.3S173.7,392.5,173.7,410.4L173.7,410.4L173.7,410.4z"/>
	<path d="M398.8,106.3c-90.8-0.1-181.7-0.2-272.5-0.3c-0.7-4.4-1.5-8.8-2.2-13.2l-3.7-23.1c-1-5.9-5.6-10-11.2-10H65.3
		c-3.2,0-6,1.3-8,3.5c-0.5,0.6-3.8,4-3.3,8.5c0.6,4.6,4.9,8.6,10.7,9.3c9.3,0,18.7,0,28,0c1.9,0,3.8,0,5.7,0c0.7,3,1.4,6,2.1,9.1
		c4.9,23.5,12.7,61.2,17.6,84.7c4.8,23.3,12.6,60.9,17.5,84.2c-8.9,24.4-17.8,48.9-26.7,73.3l-0.1,0.2c-0.1,0.3-0.4,0.9-0.6,1.5
		c2.7,0.4,9.6,1.1,26.7,1.1c52.3,0,152.9-5.9,190.8-8.1c7.1-0.4,11-0.6,12.8-0.7c1.9-0.5,3.7-1.1,5.6-1.6c1.6-0.5,3.2-0.9,4.8-1.4
		c0.6-0.4,1-0.9,1.4-1.3c2.7-3.5,2.8-9.2,1.7-10.7c-73.3,2.6-146.7,5.2-220,7.7c7.6-19.7,15.3-39.4,22.9-59.1
		c113.9-11.8,194.9-19.7,208.5-19.6c1.4,0,5.5,0.3,8.8-2.3c2.8-2.2,4-7.8,8-28.3c1.1-5.7,2.4-12.1,4-19.8
		C389,162,393.9,134.1,398.8,106.3z M222.8,124c20.2-0.6,40.4-1.1,60.6-1.7c-0.9,17.2-1.8,34.4-2.7,51.7c-20.3,0.2-40.7,0.4-61,0.7
		c-0.3,7.1-0.4,10.7-0.3,10.7C219.5,185.3,220.6,164.9,222.8,124z M136.9,173l-6.6-40.6l-1.5-9.3h9.4H206
		c-0.6,16.9-1.1,33.7-1.7,50.6C181.9,173.4,159.4,173.2,136.9,173z M203.5,239.3c-17.7,1.4-35.3,2.8-53,4.3
		c-3.7-18.9-7.4-37.9-11.2-56.8c21.7-0.2,43.3-0.4,65-0.7C204.1,203.8,203.8,221.5,203.5,239.3z M279.3,233.5
		c-20.5,1.6-41,3.2-61.5,4.8c0.5-17.1,1.1-34.2,1.6-51.3c20.6-0.3,41.1-0.7,61.7-1C280.4,201.8,279.8,217.7,279.3,233.5z
		 M363.6,227.1c-23.4,2-46.7,4-70.1,6c0.7-15.9,1.5-31.8,2.2-47.8c24.6-0.2,49.1-0.4,73.7-0.7C367.4,198.8,365.5,212.9,363.6,227.1z
		 M370.7,173.3c-25.1,0.2-50.2,0.4-75.3,0.7c0.9-16.7,1.8-33.3,2.7-50c26.5-0.2,52.9-0.5,79.4-0.7
		C375.2,140,372.9,156.7,370.7,173.3z"/>
	<path class="st1" d="M407.8,93.5C407.8,93.4,407.8,93.4,407.8,93.5c0-0.1,0-0.1,0-0.1"/>
	<path d="M220.5,236.5"/>
	<path d="M207.3,183.5"/>
	<path d="M202.3,122.3"/>
	<path d="M226.7,174.3"/>
	<path d="M298.7,182"/>
	<path d="M134,330"/>
	<path d="M92.7,81"/>
</g>
</svg>
