<?xml version="1.0" encoding="utf-8"?>
<!-- Generator: Adobe Illustrator 21.1.0, SVG Export Plug-In . SVG Version: 6.00 Build 0)  -->
<svg version="1.1" id="Layer_1" xmlns="http://www.w3.org/2000/svg" xmlns:xlink="http://www.w3.org/1999/xlink" x="0px" y="0px"
	 viewBox="0 0 512 512" style="enable-background:new 0 0 512 512;" xml:space="preserve">
<g>
	<g>
		<path d="M452.4,106.4H414V29.6h12.8c7.1,0,12.8-5.7,12.8-12.8S433.9,4,426.8,4H273.2c-7.1,0-12.8,5.7-12.8,12.8
			s5.7,12.8,12.8,12.8H286v76.8h-38.4c-28.3,0-51.2,22.9-51.2,51.2c0,3.1,0.1,33.1-0.1,37.9c0,0.2-0.2,1,0,2
			c0.7,4.5,6.5,8.6,12.2,8.6c6.6,0,10.7-5.6,11.3-6.4c3.1-4.4,2.8-8.9,2.5-17.8c-0.2-5.7-0.4-14-0.3-24.4c0-1.7,0.2-10.8,7.5-18.1
			c4.6-4.6,11-7.5,18.1-7.5h204.8c14.1,0,25.6,11.5,25.6,25.6v281.6c0,14.1-11.5,25.6-25.6,25.6h-25.6c-27-0.3-54-0.7-81-1
			c-0.8,0.7-5.8,4.9-6,12c-0.1,6,3.3,11.7,8.8,14.7h103.8c28.3,0,51.2-22.9,51.2-51.2V157.6C503.6,129.3,480.7,106.4,452.4,106.4z
			 M388.4,106.4h-76.8V29.6h76.8L388.4,106.4L388.4,106.4z"/>
		<path d="M401.2,464.8c-17.4,0-34.8,0-52.2,0"/>
	</g>
</g>
<path d="M439,509"/>
<g>
	<g>
		<path d="M445.3,248.7H357c-4.9,0-8.8,4-8.8,9c0,5,3.9,9,8.8,9h88.3c4.9,0,8.8-4,8.8-9C454.2,252.7,450.2,248.7,445.3,248.7z"/>
	</g>
</g>
<g>
	<g>
		<path d="M445.3,310H357c-4.9,0-8.8,3.6-8.8,8s3.9,8,8.8,8h88.3c4.9,0,8.8-3.6,8.8-8C454.2,313.6,450.2,310,445.3,310z"/>
	</g>
</g>
<g>
	<g>
		<path d="M445.3,366H357c-4.9,0-8.8,3.9-8.8,8.7c0,4.8,3.9,8.6,8.8,8.6h88.3c4.9,0,8.8-3.9,8.8-8.6
			C454.2,369.9,450.2,366,445.3,366z"/>
	</g>
</g>
<path d="M288,148"/>
<path d="M428.3,155.3"/>
<path d="M343.7,162"/>
<path d="M443,112"/>
<path d="M446,122"/>
<path d="M428,120.5c-56.2,1.5-112.3,3-168.5,4.5"/>
<path d="M376,163"/>
<path d="M268.5,143.5"/>
<g>
	<g>
		<path d="M247.3,126c0.4,10.3,2.9,44,26.9,59.8c8.9,5.9,19.8,10,41.8,9.5c21.3-0.4,42.7-0.9,64-1.3c6.2,0.2,23.5,0,38.7-12
			c10.7-8.4,15.4-18.9,18-24.7c1.2-2.6,2-4.8,2.3-5.7c2-5.6,4.1-13.5,4.4-23c0.1-2,0-3.6,0-4.7c-2.1,1.2-6,3.1-11.4,3.5
			c-5,0.4-9-0.7-11.2-1.5c-0.2,2.8-2.3,31.8-24.9,44.1c-6.9,3.8-13.8,4.9-19,5.1h-61.8c-5.3-0.3-12.1-1.5-19-5.1
			c-23.4-11.9-28-39.5-28.6-43.4c-1.9-0.8-4.3-1.6-7.3-2C254.4,124,249.9,125.1,247.3,126z"/>
	</g>
</g>
<path d="M422.5,171.5"/>
<path d="M412,162.2"/>
<path d="M456,124.2c-66.4,2.8-132.9,5.6-199.3,8.4"/>
<path d="M456.3,483.5c-0.9-0.5-2,0.5-5.3,1c-1.3,0.2-2.3,0.2-3,0.3c-0.2,0.4-0.5,1.1-0.8,2c-0.4,1.5-0.3,2.5-0.5,3.3
	c-0.6,2.5-1,4.4-2.5,6c-1.7,1.8-3.8,2.1-4.5,2.3c-0.6,0.1-3.4,0.6-5.8-1c-2.4-1.6-3-4.6-4-10.5c-0.3-1.5-0.4-2.7-0.5-3.5
	c-2.8,0.3-5.5,0.5-8.3,0.8c0,1.8,0.1,3.6,0.1,5.4c0,10.8,7.9,19.6,17.6,19.6c8,0,13.5-7,14-7.6c3.6-4.9,3.7-10.1,3.7-11.9
	C457.5,485.2,456.9,483.9,456.3,483.5z"/>
<path d="M324.6,187.2v29.5c0,3.1,2.7,5.7,6.1,5.7h39.2c3.4,0,6.1-2.5,6.1-5.7v-29.2c-3.1-1.2-6.7-2.1-9.7-2.3
	c-0.7,1.1-1.6,2-2.6,2.9V211h-26.9v-23.8h0.6c-0.1-0.1-0.2-0.3-0.4-0.4c-0.6-0.9-1.5-1.6-2.4-2.1c-4.6,0.3-9.1,0.8-13.3,2.6h3.3
	V187.2z"/>
<path d="M221.5,212.7"/>
<path d="M352.5,491.5"/>
<path d="M72,211"/>
<path d="M299.5,280.1h-63.6v-29.8c0-11.6-7.8-21.1-17.3-21.1h-66.7c-9.5,0-17.3,9.5-17.3,21.1v29.8H70.9
	c-14.2,0-25.7,14.1-25.7,31.5v159.7c0,17.4,11.5,31.5,25.7,31.5h228.5c14.2,0,25.7-14.1,25.7-31.5V311.1
	C324.9,294.2,313.4,280.1,299.5,280.1z M148.4,247.4c-0.2-1,0.2-2,1-2.5c0.6-0.4,1.3-0.3,1.5-0.3c22.4-0.1,44.9-0.1,67.3-0.2
	c0.7,0.1,1.5,0.4,1.9,1.2c0.2,0.4,0.2,0.8,0.3,1c0,1.3,0.2,14.4,0.5,32.5c-14.4-0.2-25.8-0.1-33.8,0c-6.5,0.1-16.2,0.3-29.8,0
	c-3.9-0.1-7.1-0.2-9.3-0.3C148.2,268.4,148.3,257.9,148.4,247.4z M198.8,295.4c-0.1,0.1-0.2,0.1-0.3,0.2c-0.1,4.2-0.2,8.4-0.3,12.6
	c-2.5,0-5,0-7.5,0c0-4.3,0-8.5,0-12.8C190.7,295.4,198.8,295.4,198.8,295.4z M180.6,304c-0.2,0-0.3-0.1-0.5-0.1H174l0.1-8.5h6.5V304
	z M81.1,487.7c-3.4-0.1-6.8-0.1-10.2-0.2c-0.5-0.3-1.6-0.9-2.8-1.8c0,0-5.7-4.6-7.5-14.5c-1.6-8.9-1.5-77.3,1-170.5
	c0.3-0.5,0.8-1.2,1.5-2c0.5-0.6,2.5-2.5,7.8-3.7c2.3-0.5,6-1,10.7-0.3C81.5,359,81.3,423.4,81.1,487.7z M113.6,488.7
	c-4.8,0-9.7,0-14.5,0c0.1-64.4,0.2-128.8,0.2-193.3c4.9-0.1,9.8-0.2,14.8-0.2C114,359.7,113.8,424.2,113.6,488.7z M238.6,487.5
	L238.6,487.5L238.6,487.5h-107c0-1.1,0-2.1,0-3.2c0-63,0-125.9,0-188.9c10.5,0,21,0,31.5,0l-0.2,17.8c0,2,2.5,3.7,5.5,3.7l35.4,0.6
	c3.1,0.1,5.6-1.5,5.6-3.5l0.2-18.6h-0.1h29.1V487.5z M270.1,488.7c-4.7,0-9.3,0-14,0c-0.3-64.5-0.7-129-1-193.5
	c5.2,0.1,10.4,0.2,15.5,0.2C270.5,359.8,270.3,424.3,270.1,488.7z M309.6,468.2c0,2.2-0.2,8.2-4,13.5c-2.6,3.7-5.7,5.4-6.5,5.8
	c-5,2.6-9.8,2-11.5,1.7c-0.3-64.7-0.7-129.3-1-194c2.6-0.6,7.3-1.4,12.5,0.5c2,0.7,4.8,1.7,7,4.5c3.5,4.4,2.7,9.8,2.5,11
	C309.6,396.5,309.8,458.6,309.6,468.2z"/>
<path d="M466.7,119.3"/>
<path d="M279.3,118.7"/>
<path d="M264.7,236.7"/>
<path d="M94.5,472"/>
<path d="M308,467.5"/>
<path d="M310,472.5"/>
<path d="M86,480.5"/>
<path d="M292.5,478.5"/>
<path d="M122.5,477"/>
<path d="M201,290"/>
<path d="M200.5,296.5"/>
<path d="M177,268.5"/>
<path d="M310.5,470"/>
<path d="M316.5,286"/>
<path d="M139,475"/>
<path d="M240,327"/>
<path d="M232,270.7"/>
<path d="M154.7,235.3c-1.6-1.6-3.1-3.1-4.7-4.7"/>
<path d="M154.8,273"/>
<path d="M147.8,226"/>
<path d="M205,239.5"/>
<path d="M448.5,500"/>
<path d="M444.3,500.3"/>
<path d="M473.8,472.5"/>
<path d="M450.8,479"/>
<path d="M424,458.8"/>
</svg>
