<?xml version="1.0" encoding="utf-8"?>
<!-- Generator: Adobe Illustrator 21.1.0, SVG Export Plug-In . SVG Version: 6.00 Build 0)  -->
<svg version="1.1" id="Layer_1" xmlns="http://www.w3.org/2000/svg" xmlns:xlink="http://www.w3.org/1999/xlink" x="0px" y="0px"
	 viewBox="0 0 512 512" style="enable-background:new 0 0 512 512;" xml:space="preserve">
<style type="text/css">
	.st0{stroke:#D931DD;stroke-width:5;stroke-miterlimit:10;}
	.st1{fill:none;}
</style>
<path class="st0" d="M424,509"/>
<path class="st0" d="M273,148"/>
<path class="st0" d="M413.3,155.3"/>
<path class="st0" d="M328.7,162"/>
<path class="st0" d="M428,112"/>
<path class="st0" d="M431,122"/>
<path class="st0" d="M361,163"/>
<path class="st0" d="M253.5,143.5"/>
<g>
	<rect x="296.6" y="29.6" class="st1" width="76.8" height="76.8"/>
	<path class="st1" d="M281.1,170c6.9,3.6,13.7,4.8,19,5.1h61.8c5.2-0.2,12.1-1.3,19-5.1c17.2-9.3,22.5-28.3,24.2-38.1H253.6
		C255.9,141.5,262.7,160.6,281.1,170z"/>
	<path d="M437.4,112.4H399h-6v-6V29.6v-6h6h12.8c3.8,0,6.8-3,6.8-6.8c0-3.8-3-6.8-6.8-6.8H258.2c-3.8,0-6.8,3-6.8,6.8
		c0,3.8,3,6.8,6.8,6.8H271h6v6v76.8v6h-6h-38.4c-24.9,0-45.2,20.3-45.2,45.2c0,0.5,0,1.5,0,3c0,14.3,0,31.2-0.1,35.1
		c0,0.3,0,0.6-0.1,0.8c0,0,0,0,0,0l0,0c0.2,1.1,3,3.5,6.3,3.5c3.1,0,5.5-2.7,6.4-3.9c1.7-2.4,1.7-5.1,1.4-13l0-1.1
		c-0.3-8-0.4-16.3-0.3-24.6c0-3.1,0.7-13.8,9.3-22.3c6-6,13.9-9.3,22.3-9.3h0c6,0,12,0,18,0c62.2,0,124.5,0,186.7,0
		c17.4,0,31.6,14.2,31.6,31.6v281.6c0,17.4-14.2,31.6-31.6,31.6h-25.6h0l0,0c-13.5-0.2-27.2-0.3-40.5-0.5
		c-12.4-0.2-25.3-0.3-37.9-0.5c-1.2,1.4-2.4,3.5-2.5,6.1c0,3.3,1.7,6.5,4.5,8.6h102.1c24.9,0,45.2-20.3,45.2-45.2V157.6
		C482.6,132.7,462.3,112.4,437.4,112.4z M379.4,29.6v76.8v6h-6h-76.8h-6v-6V29.6v-6h6h76.8h6V29.6z"/>
	<path d="M417.4,124.4c-0.8,0.1-1.7,0.1-2.5,0.1c-1.7,0-3.3-0.1-4.8-0.4c-4.9,23.2-18.4,38-26.8,42.3c-10.2,5.3-21.2,5.7-21.2,5.7
		c0,0-0.1,0-0.1,0c-19.3,0.7-33.7,0.8-33.7,0.8c-19.9,0-30.1,0-40.1-2.6c-3.9-1-7.5-2-11.2-3.7c-19.2-9.1-26.4-33.1-28.9-44.2
		c-1.1-0.3-2.3-0.6-3.5-0.8c-0.9-0.1-1.8-0.1-2.7-0.1c-1.6,0-3.1,0.2-4.4,0.4c0.6,8,2,15.7,4.1,22.5c4.2,13.3,11,23.2,20.3,29.3
		c1.3,0.9,3.3,2.2,6.4,3.6c14.6,6.9,30.7,7.7,59.1,7c29.3-0.7,37.9-2,44.2-3.3c18.2-3.6,25-7.8,28.9-10.9
		c9.6-7.5,14.3-17.1,16.5-22.8l0,0l0,0c1.3-2.8,2-4.9,2.1-5.2l0-0.1l0-0.1c2.2-6,3.5-12.3,4-18.5
		C421.3,123.9,419.4,124.2,417.4,124.4z"/>
	<path d="M286.4,271.8h-63.6V242c0-11.6-7.8-21.1-17.3-21.1h-66.7c-9.5,0-17.3,9.5-17.3,21.1v29.8H57.8c-14.2,0-25.7,14.1-25.7,31.5
		V463c0,17.4,11.5,31.5,25.7,31.5h228.5c14.2,0,25.7-14.1,25.7-31.5V302.8C311.8,285.9,300.3,271.8,286.4,271.8z M135.2,239.1
		c-0.2-1,0.2-2,1-2.5c0.6-0.4,1.3-0.3,1.5-0.3c22.4-0.1,44.9-0.1,67.3-0.2c0.7,0.1,1.5,0.4,1.9,1.2c0.2,0.4,0.2,0.8,0.3,1
		c0,1.3,0.2,14.4,0.5,32.5c-14.4-0.2-25.8-0.1-33.8,0c-6.5,0.1-16.2,0.3-29.8,0c-3.9-0.1-7.1-0.2-9.3-0.3
		C135,260.1,135.1,249.6,135.2,239.1z M185.6,287.1c-0.1,0.1-0.2,0.1-0.3,0.2c-0.1,4.2-0.2,8.4-0.3,12.6c-2.5,0-5,0-7.5,0
		c0-4.3,0-8.5,0-12.8C177.5,287.1,185.6,287.1,185.6,287.1z M167.4,295.7c-0.2,0-0.3-0.1-0.5-0.1h-6.1l0.1-8.5h6.5V295.7z
		 M67.9,479.4c-3.4-0.1-6.8-0.1-10.2-0.2c-0.5-0.3-1.6-0.9-2.8-1.8c0,0-5.7-4.6-7.5-14.5c-1.6-8.9-1.5-77.3,1-170.5
		c0.3-0.5,0.8-1.2,1.5-2c0.5-0.6,2.5-2.5,7.8-3.7c2.3-0.5,6-1,10.7-0.3C68.3,350.7,68.2,415.1,67.9,479.4z M101.5,480.5
		c-6.1-0.3-12.2-0.5-18.3-0.8c0.1-64.3,0.2-128.5,0.3-192.8c6.5,0,13,0,19.5,0C102.5,351.5,102,416,101.5,480.5z M225.4,479.2
		L225.4,479.2L225.4,479.2h-107c0-1.1,0-2.1,0-3.2c0-63,0-125.9,0-188.9c10.5,0,21,0,31.5,0l-0.2,17.8c0,2,2.5,3.7,5.5,3.7l35.4,0.6
		c3.1,0.1,5.6-1.5,5.6-3.5l0.2-18.6h-0.1h29.1L225.4,479.2L225.4,479.2z M257,480.4c-6-0.1-12-0.3-18-0.4
		c0.6-64.3,1.2-128.5,1.8-192.8c5.8,0,11.5,0,17.3,0C257.6,351.6,257.3,416,257,480.4z M296.5,459.9c0,2.2-0.2,8.2-4,13.5
		c-2.6,3.6-5.6,5.3-6.5,5.8c-6,3.2-11.9,2-13.7,1.5c0-64.7,0-129.3,0-194c1.6-0.3,3.8-0.6,6.5-0.5c1.9,0.1,4.4,0.2,7.2,1.2
		c2,0.7,4.8,1.7,7,4.5c3.5,4.4,2.7,9.8,2.5,11C296.5,388.2,296.6,450.3,296.5,459.9z"/>
	<g>
		<g>
			<path d="M432,247h-88.3c-4.9,0-8.8,2.9-8.8,6.5s3.9,6.5,8.8,6.5H432c4.9,0,8.8-2.9,8.8-6.5C440.9,249.9,436.9,247,432,247z"/>
		</g>
	</g>
	<g>
		<g>
			<path d="M432,314h-88.3c-4.9,0-8.8,2.9-8.8,6.5s3.9,6.5,8.8,6.5H432c4.9,0,8.8-2.9,8.8-6.5C440.9,316.9,436.9,314,432,314z"/>
		</g>
	</g>
	<g>
		<g>
			<path d="M434.4,382.5h-88.3c-4.9,0-8.8,2.9-8.8,6.5s3.9,6.5,8.8,6.5h88.3c4.9,0,8.8-2.9,8.8-6.5
				C443.3,385.4,439.3,382.5,434.4,382.5z"/>
		</g>
	</g>
	<path d="M306.3,177.1v23.8c0,2.5,2.7,4.6,6.1,4.6h39.2c3.4,0,6.1-2,6.1-4.6v-23.5c-3.1-1-6.7-1.7-9.7-1.9c-0.7,0.9-1.6,1.6-2.6,2.3
		v18.5h-26.9v-19.2h0.6c-0.1-0.1-0.2-0.2-0.4-0.3c-0.6-0.7-1.5-1.3-2.4-1.7c-4.6,0.2-9.1,0.6-13.3,2.1L306.3,177.1L306.3,177.1
		L306.3,177.1z"/>
</g>
<path class="st0" d="M407.5,171.5"/>
<path class="st0" d="M397,162.2"/>
<path class="st0" d="M206.5,212.7"/>
<path class="st0" d="M337.5,491.5"/>
<path class="st0" d="M57,211"/>
<path class="st0" d="M451.7,119.3"/>
<path class="st0" d="M264.3,118.7"/>
<path class="st0" d="M249.7,236.7"/>
<path class="st0" d="M79.5,472"/>
<path class="st0" d="M293,467.5"/>
<path class="st0" d="M295,472.5"/>
<path class="st0" d="M71,480.5"/>
<path class="st0" d="M277.5,478.5"/>
<path class="st0" d="M107.5,477"/>
<path class="st0" d="M186,290"/>
<path class="st0" d="M185.5,296.5"/>
<path class="st0" d="M162,268.5"/>
<path class="st0" d="M295.5,470"/>
<path class="st0" d="M301.5,286"/>
<path class="st0" d="M124,475"/>
<path class="st0" d="M225,327"/>
<path class="st0" d="M217,270.7"/>
<path class="st0" d="M139.8,273"/>
<path class="st0" d="M132.8,226"/>
<path class="st0" d="M190,239.5"/>
<path class="st0" d="M433.5,500"/>
<path class="st0" d="M429.3,500.3"/>
<path class="st0" d="M458.8,472.5"/>
<path class="st0" d="M435.8,479"/>
<path class="st0" d="M409,458.8"/>
</svg>
